# xmcd
#
# Track frame offsets:
#	150
#	23240
#	40227
#	53230
#	72337
#	77820
#	87935
#	105032
#	125265
#	145447
#	157762
#	175485
#	192115
#	201887
#	219137
#	232475
#
# Disc length: 3354 seconds
#
# Revision: 1
# Processed by: cddbd v1.5.1PL0 Copyright (c) Steve Scherf et al.
# Submitted via: CDex 1.50Beta5
#
DISCID=d80d1810
DTITLE=清水咲斗子 - 機動戦士SDガンダム・TOKYO SHUFFLE
DYEAR=1989
DGENRE=
TTITLE0=清水咲斗子/夏のうねり
TTITLE1=川村万梨阿/涙のSingle Rain
TTITLE2=サントラ/あなたがいたから
TTITLE3=西村智博/ペ・ペ・ペのぺ
TTITLE4=サントラ/谷間に3っつの鐘が鳴る
TTITLE5=サントラ/マルシャの女
TTITLE6=矢尾一樹/I wanna hold you
TTITLE7=サントラ/クリオージョの宴
TTITLE8=サントラ/哀愁のカルナバル
TTITLE9=サントラ/おしゃべりラップ
TTITLE10=本多知恵子/曖昧Me Your Steady Girl…?!
TTITLE11=サントラ/ダンス・ダンス
TTITLE12=清水咲斗子/幻のバルバドレ
TTITLE13=サントラ/ホットスタッフ
TTITLE14=サントラ/世界はゲットーだっ!
TTITLE15=清水咲斗子/アディオス・DE・ガンダム
EXTD=
EXTT0=
EXTT1=
EXTT2=
EXTT3=
EXTT4=
EXTT5=
EXTT6=
EXTT7=
EXTT8=
EXTT9=
EXTT10=
EXTT11=
EXTT12=
EXTT13=
EXTT14=
EXTT15=
PLAYORDER=
